<svg width="512" height="512" viewBox="0 0 512 512" fill="none" xmlns="http://www.w3.org/2000/svg">
  <rect width="512" height="512" rx="96" fill="#1DB954"/>
  <path d="M352 136C352 140.418 348.418 144 344 144H336C331.582 144 328 140.418 328 136V112C328 107.582 331.582 104 336 104H344C348.418 104 352 107.582 352 112V136Z" fill="white"/>
  <path d="M352 336C352 361.405 331.405 382 306 382C280.595 382 260 361.405 260 336C260 310.595 280.595 290 306 290C331.405 290 352 310.595 352 336Z" fill="white"/>
  <path d="M224 368C224 393.405 203.405 414 178 414C152.595 414 132 393.405 132 368C132 342.595 152.595 322 178 322C203.405 322 224 342.595 224 368Z" fill="white"/>
  <path d="M352 336V144L224 176V368" stroke="white" stroke-width="32" stroke-linecap="round" stroke-linejoin="round"/>
</svg>
