<svg width="180" height="180" viewBox="0 0 180 180" fill="none" xmlns="http://www.w3.org/2000/svg">
  <rect width="180" height="180" rx="34" fill="#1DB954"/>
  <path d="M123.75 47.8175C90.75 49.325 90.75 39.375 123.75 36.25C121.25 39.375 120.8 46.65 123.75 47.8175Z" fill="white"/>
  <path d="M123.75 117.5C135.5 117.5 145.833 107.167 145.833 95.5C145.833 83.8333 135.5 73.5 123.75 73.5C112 73.5 101.75 83.8333 101.75 95.5C101.75 107.167 112 117.5 123.75 117.5Z" fill="white"/>
  <path d="M78.75 128.25C78.75 140.667 68.4167 147.25 56.25 147.25C43.8333 147.25 34.1667 140.667 34.1667 128.25C34.1667 115.833 44 106.25 56.25 106.25C68.1667 106.25 78.75 115.833 78.75 128.25Z" fill="white"/>
  <path d="M123.75 95.5V45.75L78.75 61.75V128.25" stroke="white" stroke-width="11.25" stroke-linecap="round" stroke-linejoin="round"/>
</svg>
